<svg width="183" height="128" viewBox="0 0 183 128" fill="none" xmlns="http://www.w3.org/2000/svg">
<path d="M32.7709 41.0193C29.3777 41.0198 26.071 42.09 23.3208 44.0776C20.5706 46.0652 18.517 48.8691 17.4517 52.0908C17.4 52.2373 17.3569 52.3838 17.3139 52.5302L16.9606 53.9432L8 92.7151H30.5652C33.7636 92.7099 36.8832 91.723 39.5027 89.8879C42.1221 88.0527 44.1151 85.4577 45.2124 82.4535L46.074 78.7573L54.802 41.0193H32.7709Z" fill="#0B67B1"/>
<path d="M75.3425 28.0953C71.8334 28.0956 68.4203 29.2409 65.6213 31.3572C62.8222 33.4736 60.7902 36.4455 59.8337 39.8216C59.6858 40.3289 59.565 40.8438 59.4719 41.3639L44.6265 105.639H66.649C70.242 105.639 73.7322 104.439 76.5665 102.231C79.4008 100.023 81.417 96.9315 82.2956 93.4475L97.3907 28.0953H75.3425Z" fill="#F27023"/>
<path d="M111.978 41.0193C108.705 41.0198 105.51 42.0156 102.817 43.8746C100.124 45.7336 98.0603 48.3678 96.8996 51.4274C96.779 51.7376 96.3654 53.0213 96.3654 53.0213L87.2066 92.7151H109.238C112.841 92.7138 116.341 91.507 119.18 89.2868C122.018 87.0665 124.032 83.9605 124.902 80.4632L134 41.0193H111.978Z" fill="#0DB04B"/>
<path d="M124.359 55.0461C123.953 54.6444 123.469 54.3301 122.937 54.1226C122.405 53.9151 121.836 53.8189 121.266 53.8398H101.311V54.0122C101.23 54.3746 101.184 54.7439 101.173 55.115C101.148 55.6747 101.238 56.2336 101.438 56.7569C101.638 57.2803 101.944 57.7567 102.336 58.1564C102.741 58.5606 103.224 58.877 103.756 59.086C104.289 59.295 104.858 59.3922 105.429 59.3713H109.737L105.059 79.6619H105.326C106.822 79.6433 108.264 79.1006 109.401 78.1283C110.595 77.2034 111.432 75.8946 111.771 74.4234L115.217 59.3713H125.358V59.1904C125.443 58.8199 125.489 58.4416 125.496 58.0617C125.522 57.508 125.435 56.9548 125.24 56.4361C125.044 55.9175 124.744 55.4444 124.359 55.0461Z" fill="white"/>
<path d="M81.3306 53.8053H68.0275H62.4961L56.5424 79.6532H56.8095C58.3072 79.6352 59.7505 79.089 60.8849 78.111C62.0776 77.1856 62.9145 75.877 63.2543 74.4061L64.4691 69.0901H77.9014C79.3978 69.0754 80.8421 68.5391 81.9854 67.5737C83.1888 66.6355 84.0391 65.3175 84.3979 63.8343L85.5007 59.1558C85.5792 58.7816 85.6225 58.4008 85.63 58.0185C85.6554 57.4633 85.5643 56.9089 85.3625 56.391C85.1606 55.8731 84.8526 55.4032 84.4582 55.0116C84.0465 54.608 83.5568 54.2929 83.019 54.0854C82.4811 53.878 81.9066 53.7827 81.3306 53.8053ZM66.7437 59.3282H80.0985L79.099 63.5672H65.7357L66.7437 59.3282Z" fill="white"/>
<path d="M23.2761 55.339C22.1847 56.1674 21.3778 57.3146 20.967 58.6217L16.1248 79.6619H16.3919C17.8857 79.645 19.3257 79.1019 20.4587 78.1283C21.651 77.2009 22.4901 75.8936 22.8367 74.4234L24.0774 69.0729H33.3654C34.8747 69.045 36.3274 68.4937 37.4752 67.5134C38.6805 66.5837 39.5268 65.2655 39.8705 63.7827L39.9308 63.5156H25.3612L26.3348 59.3024H40.1203C41.6124 59.2842 43.051 58.7447 44.1871 57.7774C45.3721 56.8324 46.2087 55.5198 46.5651 54.0466L46.634 53.7795H27.3601C25.8565 53.7966 24.4084 54.3496 23.2761 55.339Z" fill="white"/>
<path d="M169.406 53.5957C169.406 54.0246 169.279 54.4439 169.041 54.8005C168.802 55.1571 168.464 55.4351 168.067 55.5992C167.671 55.7633 167.235 55.8063 166.814 55.7226C166.394 55.6389 166.007 55.4324 165.704 55.1291C165.401 54.8259 165.194 54.4395 165.111 54.0188C165.027 53.5981 165.07 53.1621 165.234 52.7659C165.398 52.3696 165.676 52.0309 166.033 51.7927C166.389 51.5544 166.809 51.4272 167.238 51.4272C167.813 51.4276 168.364 51.6562 168.771 52.0628C169.177 52.4694 169.406 53.0207 169.406 53.5957Z" fill="#30B1FF"/>
<path d="M157.005 33.4514C155.344 32.6603 153.635 31.9734 151.888 31.3949L150.501 30.972C145.095 29.4468 140.854 29.7396 139.48 32.1199C137.299 35.8961 142.886 42.1314 149.396 46.6405L149.277 44.7719C143.022 40.2108 139.382 35.1884 140.731 32.8428C141.668 31.22 145.27 30.9872 150.174 32.3823L151.564 32.8139C154.562 33.8306 157.45 35.1481 160.183 36.7462C162.933 38.3162 165.52 40.1565 167.905 42.2398L168.971 43.2214C169.652 43.8726 170.299 44.5583 170.91 45.2758C173.187 47.9864 174.054 50.3068 173.288 51.6368C172.999 52.0305 172.624 52.3535 172.192 52.5814C171.76 52.8093 171.282 52.9361 170.794 52.9524C170.831 53.1648 170.851 53.38 170.852 53.5957C170.85 53.873 170.818 54.1492 170.758 54.4198C172.579 54.2029 173.866 53.5162 174.538 52.3597C175.644 50.4441 174.748 47.5961 172.016 44.3433C171.39 43.6096 170.728 42.9075 170.032 42.2398L168.971 41.2582C166.484 39.0696 163.782 37.1389 160.905 35.4956C160.173 35.0735 159.43 34.6684 158.679 34.2805L157.005 33.4514Z" fill="#30B1FF"/>
<path d="M160.444 25.5347C160.873 25.5347 161.292 25.6619 161.648 25.9002C162.005 26.1385 162.283 26.4772 162.447 26.8734C162.611 27.2697 162.654 27.7057 162.571 28.1263C162.487 28.547 162.28 28.9334 161.977 29.2367C161.674 29.5399 161.287 29.7465 160.867 29.8301C160.446 29.9138 160.01 29.8709 159.614 29.7067C159.218 29.5426 158.879 29.2647 158.641 28.908C158.402 28.5514 158.275 28.1322 158.275 27.7033C158.277 27.1287 158.506 26.5781 158.912 26.1718C159.319 25.7655 159.869 25.5364 160.444 25.5347Z" fill="#5BFFE8"/>
<path d="M150.602 31.3949C151.847 26.4491 153.853 23.4457 155.724 23.4457C156.519 23.4457 157.335 23.9806 158.109 24.9564C158.476 24.6348 158.907 24.3957 159.374 24.2553C158.282 22.7879 157.039 22 155.724 22C152.974 22 150.599 25.5275 149.215 30.972L148.888 32.3823C148.233 35.6267 147.912 38.9298 147.931 42.2397C147.931 43.0999 147.953 43.9435 147.991 44.7719L148.11 46.6404C148.256 48.473 148.515 50.2948 148.888 52.0951L149.214 53.506C150.598 58.9513 152.973 62.4795 155.724 62.4795C160.09 62.4795 162.684 54.5513 163.332 46.6289L161.785 47.6582C160.963 55.3696 158.438 61.0338 155.724 61.0338C153.853 61.0338 151.847 58.0311 150.602 53.0854L150.278 51.6642C149.661 48.5612 149.359 45.4036 149.377 42.2397C149.359 39.0754 149.661 35.9173 150.278 32.8138L150.602 31.3949Z" fill="#5BFFE8"/>
<path d="M170.032 42.2397C170.728 41.5719 171.39 40.8699 172.016 40.1362C174.748 36.8834 175.644 34.0354 174.538 32.1198C172.354 28.3429 164.168 30.0655 157.005 33.4513L158.679 34.2804C165.76 31.1389 171.927 30.4927 173.288 32.8427C174.054 34.1727 173.187 36.493 170.91 39.2037C170.299 39.9212 169.652 40.6069 168.971 41.2581L167.905 42.2397C165.52 44.323 162.933 46.1633 160.182 47.7333C157.45 49.3313 154.562 50.6483 151.564 51.6642L150.173 52.095C145.27 53.4886 141.668 53.2544 140.731 51.6367C140.333 50.9428 140.391 49.9742 140.846 48.8248C140.379 48.6585 139.951 48.3976 139.589 48.0586C138.858 49.7356 138.808 51.203 139.48 52.3596C140.297 53.7691 142.119 54.4486 144.598 54.4486C146.599 54.4002 148.584 54.0832 150.5 53.506L151.888 53.0853C155.026 52.0302 158.048 50.6559 160.905 48.9839C161.637 48.5587 162.359 48.1167 163.07 47.6582L164.618 46.6288C166.137 45.5834 167.591 44.4454 168.971 43.2213L170.032 42.2397Z" fill="#FFA866"/>
<path d="M142.061 47.5889C141.632 47.5889 141.213 47.4617 140.856 47.2234C140.499 46.9851 140.221 46.6464 140.057 46.2502C139.893 45.8539 139.85 45.4179 139.934 44.9973C140.018 44.5766 140.224 44.1902 140.527 43.8869C140.831 43.5836 141.217 43.3771 141.638 43.2934C142.058 43.2098 142.494 43.2527 142.891 43.4168C143.287 43.581 143.626 43.8589 143.864 44.2155C144.102 44.5722 144.229 44.9914 144.229 45.4203C144.229 45.9953 144 46.5467 143.594 46.9533C143.187 47.3599 142.636 47.5885 142.061 47.5889Z" fill="#FFA866"/>
<path d="M160.444 25.5348C160.873 25.5348 161.292 25.6619 161.648 25.9002C162.005 26.1385 162.283 26.4772 162.447 26.8734C162.611 27.2697 162.654 27.7057 162.571 28.1264C162.487 28.547 162.28 28.9334 161.977 29.2367C161.674 29.54 161.287 29.7465 160.867 29.8302C160.446 29.9139 160.01 29.8709 159.614 29.7068C159.218 29.5426 158.879 29.2647 158.641 28.9081C158.402 28.5515 158.275 28.1322 158.275 27.7033C158.277 27.1287 158.506 26.5781 158.912 26.1718C159.318 25.7655 159.869 25.5365 160.444 25.5348Z" fill="#5BFFE8"/>
<path d="M169.406 53.5956C169.406 54.0245 169.279 54.4438 169.041 54.8004C168.802 55.157 168.464 55.4349 168.067 55.5991C167.671 55.7632 167.235 55.8062 166.814 55.7225C166.394 55.6388 166.007 55.4323 165.704 55.129C165.401 54.8257 165.194 54.4393 165.111 54.0187C165.027 53.598 165.07 53.162 165.234 52.7657C165.398 52.3695 165.676 52.0308 166.033 51.7925C166.389 51.5542 166.809 51.4271 167.238 51.4271C167.813 51.4274 168.364 51.656 168.77 52.0626C169.177 52.4692 169.406 53.0206 169.406 53.5956Z" fill="#31A5EC"/>
<path d="M152.751 46H151L153.667 38H155.773L158.436 46H156.686L154.75 39.8281H154.69L152.751 46ZM152.641 42.8555H156.776V44.1758H152.641V42.8555Z" fill="url(#paint0_linear_2007_54)"/>
<path d="M161 38V46H159.366V38H161Z" fill="url(#paint1_linear_2007_54)"/>
<defs>
<linearGradient id="paint0_linear_2007_54" x1="166" y1="42.314" x2="153.139" y2="47.8896" gradientUnits="userSpaceOnUse">
<stop stop-color="#4FBDFE"/>
<stop offset="1" stop-color="#0BFFCE"/>
</linearGradient>
<linearGradient id="paint1_linear_2007_54" x1="166" y1="42.314" x2="153.139" y2="47.8896" gradientUnits="userSpaceOnUse">
<stop stop-color="#4FBDFE"/>
<stop offset="1" stop-color="#0BFFCE"/>
</linearGradient>
</defs>
</svg>
